Jump_normalized_precision_landing06_filtered_grf
version=1
nRows=30
nColumns=37
inDegrees=yes
endheader
time		1_ground_force_vx		1_ground_force_vy		1_ground_force_vz		1_ground_force_px		1_ground_force_py		1_ground_force_pz		1_ground_torque_x		1_ground_torque_y		1_ground_torque_z		2_ground_force_vx		2_ground_force_vy		2_ground_force_vz		2_ground_force_px		2_ground_force_py		2_ground_force_pz		2_ground_torque_x		2_ground_torque_y		2_ground_torque_z		3_ground_force_vx		3_ground_force_vy		3_ground_force_vz		3_ground_force_px		3_ground_force_py		3_ground_force_pz		3_ground_torque_x		3_ground_torque_y		3_ground_torque_z		4_ground_force_vx		4_ground_force_vy		4_ground_force_vz		4_ground_force_px		4_ground_force_py		4_ground_force_pz		4_ground_torque_x		4_ground_torque_y		4_ground_torque_z		
0.324500		-0.000000		0.000000		0.000000		0.123103		0.000000		0.286396		0.000000		0.000000		-0.000000		0.000000		0.000000		0.000000		-0.153779		0.000000		0.276501		0.000000		-0.000000		0.000000		-71.303844		521.498907		38.395833		0.381877		1.273817		1.886681		2.585427		-18.909185		-1.392206		89.297229		556.185869		57.890203		-0.352088		1.266875		1.874500		3.522190		21.937887		2.283389		
0.327404		-0.000000		0.000000		0.000000		0.123103		0.000000		0.286396		0.000000		0.000000		-0.000000		0.000000		0.000000		0.000000		-0.153779		0.000000		0.276501		0.000000		-0.000000		0.000000		-71.382270		523.064936		37.084625		0.381872		1.273835		1.886743		2.593206		-19.002131		-1.347226		89.990736		560.945814		56.679327		-0.352067		1.266888		1.874552		3.552802		22.145937		2.237679		
0.330308		-0.000000		0.000000		0.000000		0.123103		0.000000		0.286396		0.000000		0.000000		-0.000000		0.000000		0.000000		0.000000		-0.153779		0.000000		0.276501		0.000000		-0.000000		0.000000		-71.422248		524.418911		35.731651		0.381860		1.273853		1.886803		2.600539		-19.094497		-1.301016		90.659795		565.591620		55.514619		-0.352059		1.266890		1.874590		3.582915		22.352429		2.193961		
0.333212		0.000000		-0.000000		0.000000		0.123103		0.000000		0.286396		-0.000000		-0.000000		0.000000		0.000000		0.000000		0.000000		-0.153779		0.000000		0.276501		0.000000		-0.000000		0.000000		-71.415340		525.595625		34.388190		0.381844		1.273868		1.886856		2.606752		-19.184917		-1.255212		91.315681		570.043473		54.319664		-0.352060		1.266885		1.874618		3.613259		22.555979		2.149367		
0.336116		0.000000		-0.000000		-0.000000		0.123103		0.000000		0.286396		-0.000000		-0.000000		0.000000		-0.000000		0.000000		0.000000		-0.153779		0.000000		0.276501		0.000000		-0.000000		0.000000		-71.369673		526.617594		33.096255		0.381824		1.273879		1.886900		2.611758		-19.271456		-1.211150		91.953596		574.224126		53.032011		-0.352068		1.266874		1.874638		3.643850		22.754810		2.101502		
0.339020		0.000000		-0.000000		-0.000000		0.123103		0.000000		0.286396		-0.000000		-0.000000		0.000000		-0.000000		-0.000000		0.000000		-0.153779		0.000000		0.276501		-0.000000		0.000000		-0.000000		-71.299485		527.482112		31.878327		0.381803		1.273885		1.886931		2.615765		-19.351742		-1.169520		92.552978		578.078996		51.624245		-0.352080		1.266861		1.874657		3.673845		22.946564		2.049199		
0.341924		0.000000		-0.000000		-0.000000		0.123103		0.000000		0.286396		-0.000000		-0.000000		0.000000		-0.000000		-0.000000		-0.000000		-0.153779		0.000000		0.276501		-0.000000		0.000000		-0.000000		-71.212770		528.159593		30.729483		0.381781		1.273886		1.886949		2.618824		-19.422880		-1.130065		93.082114		581.588364		50.115221		-0.352093		1.266850		1.874679		3.701679		23.128540		1.992976		
0.344828		0.000000		-0.000000		-0.000000		0.123103		0.000000		0.286396		-0.000000		-0.000000		0.000000		-0.000000		-0.000000		-0.000000		-0.153779		0.000000		0.276501		-0.000000		0.000000		-0.000000		-71.106204		528.606987		29.616412		0.381759		1.273882		1.886957		2.620610		-19.481743		-1.091509		93.508326		584.773094		48.571557		-0.352103		1.266844		1.874706		3.725558		23.298523		1.935187		
0.347732		-0.000000		-0.000000		-0.000000		0.123103		0.000000		0.286396		-0.000000		-0.000000		0.000000		-0.000000		-0.000000		-0.000000		-0.153779		0.000000		0.276501		-0.000000		0.000000		-0.000000		-70.968656		528.784575		28.488821		0.381738		1.273878		1.886959		2.620553		-19.525635		-1.051963		93.806748		587.677531		47.096723		-0.352114		1.266842		1.874739		3.744014		23.455380		1.879723		
0.350636		-0.000000		0.000000		0.000000		0.123103		0.000000		0.286396		0.000000		0.000000		-0.000000		0.000000		-0.000000		-0.000000		-0.153779		0.000000		0.276501		-0.000000		0.000000		-0.000000		-70.788921		528.672832		27.287602		0.381718		1.273874		1.886964		2.618161		-19.553214		-1.009244		93.967635		590.350225		45.784870		-0.352125		1.266844		1.874776		3.756364		23.599300		1.830254		
0.353540		-0.000000		0.000000		0.000000		0.123103		0.000000		0.286396		0.000000		0.000000		-0.000000		0.000000		-0.000000		-0.000000		-0.153779		0.000000		0.276501		-0.000000		0.000000		-0.000000		-70.564671		528.281058		25.973325		0.381699		1.273875		1.886974		2.613383		-19.565044		-0.961930		93.997249		592.826758		44.678754		-0.352137		1.266848		1.874815		3.762789		23.731352		1.788528		
0.356444		-0.000000		0.000000		0.000000		0.123103		0.000000		0.286396		0.000000		0.000000		-0.000000		0.000000		0.000000		0.000000		-0.153779		0.000000		0.276501		0.000000		-0.000000		0.000000		-70.309923		527.647062		24.537916		0.381682		1.273879		1.886995		2.606869		-19.563479		-0.909788		93.911201		595.119744		43.764578		-0.352152		1.266853		1.874855		3.763993		23.852601		1.754099		
0.359348		-0.000000		0.000000		0.000000		0.123103		0.000000		0.286396		0.000000		0.000000		-0.000000		0.000000		0.000000		0.000000		-0.153779		0.000000		0.276501		0.000000		-0.000000		0.000000		-70.054586		526.833431		23.006330		0.381670		1.273886		1.887020		2.599905		-19.552133		-0.853823		93.730330		597.223828		42.970043		-0.352167		1.266858		1.874897		3.760952		23.963749		1.724183		
0.362253		-0.000000		0.000000		0.000000		0.123103		0.000000		0.286396		0.000000		0.000000		-0.000000		0.000000		0.000000		0.000000		-0.153779		0.000000		0.276501		0.000000		-0.000000		0.000000		-69.830765		525.917098		21.430593		0.381663		1.273895		1.887051		2.593842		-19.535025		-0.796032		93.476692		599.126930		42.187540		-0.352182		1.266863		1.874939		3.754688		24.065192		1.694551		
0.365157		0.000000		-0.000000		0.000000		0.123103		0.000000		0.286396		-0.000000		0.000000		0.000000		0.000000		0.000000		0.000000		-0.153779		0.000000		0.276501		0.000000		-0.000000		0.000000		-69.654018		524.977476		19.876888		0.381665		1.273901		1.887081		2.589376		-19.515948		-0.738920		93.170308		600.821898		41.297092		-0.352195		1.266868		1.874982		3.746107		24.157304		1.660436		
0.368061		0.000000		-0.000000		-0.000000		0.123103		0.000000		0.286396		-0.000000		-0.000000		0.000000		-0.000000		0.000000		0.000000		-0.153779		0.000000		0.276501		0.000000		-0.000000		0.000000		-69.511299		524.083843		18.411107		0.381675		1.273904		1.887105		2.586091		-19.497963		-0.684965		92.825343		602.311238		40.199655		-0.352204		1.266874		1.875023		3.735863		24.240709		1.617881		
0.370965		0.000000		-0.000000		-0.000000		0.123103		0.000000		0.286396		-0.000000		-0.000000		0.000000		-0.000000		-0.000000		0.000000		-0.153779		0.000000		0.276501		0.000000		-0.000000		-0.000000		-69.364281		523.283218		17.074506		0.381691		1.273900		1.887124		2.582608		-19.483160		-0.635727		92.446450		603.599965		38.857572		-0.352209		1.266880		1.875062		3.724265		24.316415		1.565402		
0.373869		0.000000		-0.000000		-0.000000		0.123103		0.000000		0.286396		-0.000000		-0.000000		0.000000		-0.000000		-0.000000		-0.000000		-0.153779		0.000000		0.276501		-0.000000		0.000000		-0.000000		-69.164858		522.592801		15.872048		0.381708		1.273892		1.887139		2.577210		-19.472772		-0.591422		92.031283		604.687446		37.270011		-0.352207		1.266886		1.875096		3.711445		24.385884		1.503027		
0.376773		0.000000		-0.000000		-0.000000		0.123103		0.000000		0.286396		-0.000000		-0.000000		0.000000		-0.000000		-0.000000		-0.000000		-0.153779		0.000000		0.276501		-0.000000		0.000000		-0.000000		-68.874556		522.001180		14.773046		0.381723		1.273883		1.887158		2.568612		-19.467545		-0.550946		91.570818		605.561621		35.480239		-0.352200		1.266891		1.875127		3.697329		24.450595		1.432575		
0.379677		-0.000000		-0.000000		-0.000000		0.123103		0.000000		0.286396		-0.000000		-0.000000		0.000000		-0.000000		-0.000000		-0.000000		-0.153779		0.000000		0.276501		-0.000000		0.000000		-0.000000		-68.476502		521.477302		13.719452		0.381730		1.273881		1.887186		2.556395		-19.468018		-0.512180		91.051206		606.202342		33.564358		-0.352189		1.266893		1.875154		3.681613		24.511511		1.357159		
0.382581		-0.000000		0.000000		0.000000		0.123103		0.000000		0.286396		0.000000		0.000000		-0.000000		0.000000		-0.000000		-0.000000		-0.153779		0.000000		0.276501		-0.000000		0.000000		-0.000000		-67.977347		520.977307		12.634213		0.381728		1.273893		1.887229		2.541009		-19.474257		-0.472270		90.459346		606.598295		31.621493		-0.352177		1.266893		1.875180		3.663889		24.569148		1.280770		
0.385485		-0.000000		0.000000		0.000000		0.123103		0.000000		0.286396		0.000000		0.000000		-0.000000		0.000000		-0.000000		-0.000000		-0.153779		0.000000		0.276501		-0.000000		0.000000		-0.000000		-67.400644		520.448722		11.430720		0.381714		1.273924		1.887294		2.523454		-19.485394		-0.427962		89.788759		606.767861		29.766002		-0.352168		1.266886		1.875211		3.643867		24.624256		1.207984		
0.388389		-0.000000		0.000000		0.000000		0.123103		0.000000		0.286396		0.000000		0.000000		-0.000000		0.000000		0.000000		0.000000		-0.153779		0.000000		0.276501		0.000000		-0.000000		0.000000		-66.775746		519.833311		10.047600		0.381694		1.273975		1.887374		2.504815		-19.499394		-0.376893		89.047375		606.777439		28.027095		-0.352168		1.266873		1.875248		3.621732		24.678836		1.139917		
0.391293		-0.000000		0.000000		0.000000		0.123103		0.000000		0.286396		0.000000		0.000000		-0.000000		0.000000		0.000000		0.000000		-0.153779		0.000000		0.276501		0.000000		-0.000000		0.000000		-66.126540		519.074613		8.444543		0.381673		1.274043		1.887468		2.485859		-19.513296		-0.317450		88.257956		606.737746		26.395676		-0.352174		1.266854		1.875295		3.598227		24.736359		1.076136		
0.394197		-0.000000		0.000000		0.000000		0.123103		0.000000		0.286396		0.000000		0.000000		-0.000000		0.000000		0.000000		0.000000		-0.153779		0.000000		0.276501		0.000000		-0.000000		0.000000		-65.459897		518.123768		6.611531		0.381654		1.274121		1.887568		2.466649		-19.523854		-0.249134		87.457449		606.783075		24.805893		-0.352185		1.266831		1.875351		3.574679		24.801263		1.013899		
0.397101		0.000000		0.000000		0.000000		0.123103		0.000000		0.286396		0.000000		0.000000		-0.000000		0.000000		0.000000		0.000000		-0.153779		0.000000		0.276501		0.000000		-0.000000		0.000000		-64.759803		516.946310		4.568313		0.381640		1.274204		1.887668		2.446384		-19.528308		-0.172572		86.691424		607.043662		23.150755		-0.352194		1.266808		1.875413		3.552782		24.877822		0.948762		
0.400005		0.000000		-0.000000		-0.000000		0.123103		0.000000		0.286396		-0.000000		-0.000000		0.000000		-0.000000		0.000000		0.000000		-0.153779		0.000000		0.276501		0.000000		-0.000000		0.000000		-63.989523		515.525916		2.357824		0.381630		1.274286		1.887768		2.423556		-19.525169		-0.089301		86.005134		607.614028		21.304233		-0.352195		1.266789		1.875479		3.534223		24.968783		0.875458		
0.402909		0.000000		-0.000000		-0.000000		0.123103		0.000000		0.286396		-0.000000		-0.000000		0.000000		-0.000000		0.000000		0.000000		-0.153779		0.000000		0.276501		0.000000		-0.000000		-0.000000		-63.100098		513.863553		0.043545		0.381621		1.274363		1.887865		2.396307		-19.514627		-0.001653		85.436231		608.528397		19.101246		-0.352180		1.266779		1.875546		3.520380		25.074271		0.787061		
0.405813		0.000000		-0.000000		-0.000000		0.123103		0.000000		0.286396		-0.000000		-0.000000		0.000000		-0.000000		-0.000000		-0.000000		-0.153779		0.000000		0.276501		-0.000000		0.000000		-0.000000		-62.046918		511.979783		-2.327340		0.381611		1.274430		1.887960		2.363033		-19.498559		0.088638		85.004228		609.734378		16.465599		-0.352143		1.266779		1.875612		3.511904		25.190850		0.680265		
0.408717		0.000000		-0.000000		-0.000000		0.123103		0.000000		0.286396		-0.000000		-0.000000		0.000000		-0.000000		-0.000000		-0.000000		-0.153779		0.000000		0.276501		-0.000000		0.000000		-0.000000		-60.797473		509.905830		-4.720280		0.381596		1.274485		1.888052		2.322605		-19.479596		0.180328		84.710126		611.102766		13.338745		-0.352086		1.266788		1.875674		3.508783		25.312528		0.552503		
